<svg xmlns="http://www.w3.org/2000/svg" viewBox="0 0 46.5 12.07"><g id="Calque_2" data-name="Calque 2"><g id="Calque_1-2" data-name="Calque 1"><path d="M.73,10.86V1.14H3.19a6.15,6.15,0,0,1,1.18.11,2.6,2.6,0,0,1,1,.38A1.83,1.83,0,0,1,6,2.39a3.08,3.08,0,0,1,.22,1.27,2.68,2.68,0,0,1-.17,1,1.49,1.49,0,0,1-.48.66,1.79,1.79,0,0,1-.77.32,2,2,0,0,1,1,.38,1.83,1.83,0,0,1,.58.8A3.17,3.17,0,0,1,6.48,8a3.79,3.79,0,0,1-.19,1.28,2.12,2.12,0,0,1-.54.88,2.27,2.27,0,0,1-.89.53,4.08,4.08,0,0,1-1.22.17Zm2-5.8H3.2A1.58,1.58,0,0,0,4,4.91a.79.79,0,0,0,.37-.45,2.39,2.39,0,0,0,.1-.75A1.48,1.48,0,0,0,4.3,3a.86.86,0,0,0-.45-.39,2.21,2.21,0,0,0-.78-.12H2.71Zm0,4.41h.55a1.25,1.25,0,0,0,1-.37A1.83,1.83,0,0,0,4.57,8a2.6,2.6,0,0,0-.13-.92A.93.93,0,0,0,4,6.56a1.56,1.56,0,0,0-.78-.16H2.71Z" transform="translate(-0.73 -1.14)"/><path d="M7.6,10.86V1.14H9.41v9.72Z" transform="translate(-0.73 -1.14)"/><path d="M10.69,2.78V1.43h1.83V2.78Zm0,8.08V3.92h1.82v6.94Z" transform="translate(-0.73 -1.14)"/><path d="M13.76,10.86V3.92h1.82v.7A3,3,0,0,1,16.36,4a1.83,1.83,0,0,1,.88-.23A1.13,1.13,0,0,1,18,4a1.26,1.26,0,0,1,.4.57,2.24,2.24,0,0,1,.13.8v5.47h-1.8V5.69a.81.81,0,0,0-.09-.43.36.36,0,0,0-.34-.15.83.83,0,0,0-.32.08,1.62,1.62,0,0,0-.35.21v5.46Z" transform="translate(-0.73 -1.14)"/><path d="M21.84,13.21a5.08,5.08,0,0,1-1.31-.15,1.9,1.9,0,0,1-.87-.47,1,1,0,0,1-.32-.78,1.26,1.26,0,0,1,.53-1,3.2,3.2,0,0,1,.53-.34,1.33,1.33,0,0,1-.65-.37.92.92,0,0,1-.24-.65,1.22,1.22,0,0,1,.21-.72,3.07,3.07,0,0,1,.56-.61,1.86,1.86,0,0,1-.54-.75,2.93,2.93,0,0,1-.18-1.11,2.8,2.8,0,0,1,.28-1.32,1.79,1.79,0,0,1,.81-.82,2.67,2.67,0,0,1,1.29-.29,2.59,2.59,0,0,1,.93.15,1.63,1.63,0,0,1,.66.44A2.33,2.33,0,0,1,23.88,4a2.46,2.46,0,0,1,.52-.34l.24-.11.43.92-.33.12-.42.18A3,3,0,0,0,24,5a2.48,2.48,0,0,1,.2.6,4,4,0,0,1,.07.69A3.09,3.09,0,0,1,24,7.52a1.8,1.8,0,0,1-.76.83,2.58,2.58,0,0,1-1.28.29,3.45,3.45,0,0,1-.57-.05,3.81,3.81,0,0,1-.51-.12,2.39,2.39,0,0,0-.13.21.52.52,0,0,0-.05.24.24.24,0,0,0,.13.22,1.2,1.2,0,0,0,.5.12L23,9.44a2,2,0,0,1,1.29.56,1.76,1.76,0,0,1,.41,1.23,1.93,1.93,0,0,1-.28,1.08,1.76,1.76,0,0,1-.92.67A4.72,4.72,0,0,1,21.84,13.21Zm.22-1.33a3.19,3.19,0,0,0,1-.12.46.46,0,0,0,.35-.47.45.45,0,0,0-.09-.28.61.61,0,0,0-.31-.19,3.33,3.33,0,0,0-.62-.1l-1.25-.12a1.34,1.34,0,0,0-.21.2.87.87,0,0,0-.16.23.58.58,0,0,0-.06.26.47.47,0,0,0,.31.44A2.55,2.55,0,0,0,22.06,11.88Zm-.12-4.34a.59.59,0,0,0,.31-.08.4.4,0,0,0,.18-.22,1.42,1.42,0,0,0,.08-.41,5.21,5.21,0,0,0,0-.6,5.21,5.21,0,0,0,0-.6,1.34,1.34,0,0,0-.08-.4A.45.45,0,0,0,22.25,5a.72.72,0,0,0-.62,0,.48.48,0,0,0-.19.23,1.74,1.74,0,0,0-.08.41,5.44,5.44,0,0,0,0,.6,5.06,5.06,0,0,0,0,.58,2,2,0,0,0,.08.41.45.45,0,0,0,.18.24A.61.61,0,0,0,21.94,7.54Z" transform="translate(-0.73 -1.14)"/><path d="M26.7,11a1.09,1.09,0,0,1-.7-.22,1.22,1.22,0,0,1-.42-.57,2.52,2.52,0,0,1-.13-.79V3.92h1.81V9.13a.87.87,0,0,0,.1.44.38.38,0,0,0,.35.15.71.71,0,0,0,.3-.08l.33-.18V3.92h1.82v6.94H28.34v-.65a3.15,3.15,0,0,1-.77.56A1.92,1.92,0,0,1,26.7,11Z" transform="translate(-0.73 -1.14)"/><path d="M32.78,11a1.39,1.39,0,0,1-.84-.25,1.59,1.59,0,0,1-.54-.64,1.82,1.82,0,0,1-.18-.79,2.2,2.2,0,0,1,.92-1.84A4.2,4.2,0,0,1,33.05,7c.33-.15.67-.28,1-.4V5.9a2.13,2.13,0,0,0,0-.39.44.44,0,0,0-.14-.26.42.42,0,0,0-.29-.09.51.51,0,0,0-.3.08.48.48,0,0,0-.14.23,1.14,1.14,0,0,0,0,.33l0,.48L31.34,6.2A2.68,2.68,0,0,1,32,4.39a2.36,2.36,0,0,1,1.75-.59,1.93,1.93,0,0,1,1.56.59,2.21,2.21,0,0,1,.51,1.53V9.14c0,.28,0,.52,0,.73s0,.4,0,.56,0,.31.06.43H34.3c0-.18-.06-.37-.09-.58s-.05-.34-.07-.42a1.74,1.74,0,0,1-.46.78A1.18,1.18,0,0,1,32.78,11Zm.66-1.28a.58.58,0,0,0,.26-.06.83.83,0,0,0,.21-.16,1.19,1.19,0,0,0,.15-.18V7.39l-.47.31a1.71,1.71,0,0,0-.37.33,1.15,1.15,0,0,0-.24.39,1.31,1.31,0,0,0-.09.5,1,1,0,0,0,.15.57A.45.45,0,0,0,33.44,9.7Z" transform="translate(-0.73 -1.14)"/><path d="M39.14,13.21a5.08,5.08,0,0,1-1.31-.15,2,2,0,0,1-.87-.47,1,1,0,0,1-.31-.78,1.11,1.11,0,0,1,.14-.58,1.27,1.27,0,0,1,.38-.45,3.2,3.2,0,0,1,.53-.34,1.38,1.38,0,0,1-.65-.37.91.91,0,0,1-.23-.65A1.22,1.22,0,0,1,37,8.7a3.41,3.41,0,0,1,.56-.61A1.86,1.86,0,0,1,37,7.34a2.93,2.93,0,0,1-.18-1.11,2.93,2.93,0,0,1,.28-1.32A1.79,1.79,0,0,1,38,4.09a2.73,2.73,0,0,1,1.29-.29,2.69,2.69,0,0,1,.94.15,1.78,1.78,0,0,1,.66.44A2.22,2.22,0,0,1,41.18,4a3.11,3.11,0,0,1,.52-.34l.24-.11.43.92L42,4.6l-.42.18a2.25,2.25,0,0,0-.35.18,2.5,2.5,0,0,1,.19.6,3.23,3.23,0,0,1,.07.69,2.94,2.94,0,0,1-.25,1.27,1.8,1.8,0,0,1-.76.83,2.55,2.55,0,0,1-1.28.29,3.45,3.45,0,0,1-.57-.05,3.81,3.81,0,0,1-.51-.12,2.39,2.39,0,0,0-.13.21.69.69,0,0,0-.05.24.25.25,0,0,0,.14.22,1.16,1.16,0,0,0,.5.12l1.66.18a1.94,1.94,0,0,1,1.29.56A1.77,1.77,0,0,1,42,11.23a1.93,1.93,0,0,1-.29,1.08,1.72,1.72,0,0,1-.92.67A4.68,4.68,0,0,1,39.14,13.21Zm.22-1.33a3.26,3.26,0,0,0,1-.12.47.47,0,0,0,.35-.47.45.45,0,0,0-.09-.28.65.65,0,0,0-.32-.19,3.2,3.2,0,0,0-.61-.1l-1.25-.12a2.09,2.09,0,0,0-.22.2,1.14,1.14,0,0,0-.15.23.58.58,0,0,0-.06.26.48.48,0,0,0,.3.44A2.58,2.58,0,0,0,39.36,11.88Zm-.12-4.34a.57.57,0,0,0,.31-.08.4.4,0,0,0,.18-.22,1.8,1.8,0,0,0,.09-.41c0-.17,0-.37,0-.6s0-.43,0-.6a1.7,1.7,0,0,0-.09-.4A.45.45,0,0,0,39.55,5a.57.57,0,0,0-.31-.07.62.62,0,0,0-.31.07.47.47,0,0,0-.18.23,1.68,1.68,0,0,0-.09.41c0,.17,0,.37,0,.6s0,.42,0,.58a1.93,1.93,0,0,0,.09.41.45.45,0,0,0,.18.24A.57.57,0,0,0,39.24,7.54Z" transform="translate(-0.73 -1.14)"/><path d="M45,11a2.67,2.67,0,0,1-1.29-.28,1.9,1.9,0,0,1-.78-.83,3.06,3.06,0,0,1-.26-1.31V6.23a3.09,3.09,0,0,1,.26-1.33,1.79,1.79,0,0,1,.8-.81A2.62,2.62,0,0,1,45,3.8a2.53,2.53,0,0,1,1.28.29,1.72,1.72,0,0,1,.73.84,3.59,3.59,0,0,1,.23,1.35V7.49H44.45V8.83a1.63,1.63,0,0,0,.06.49.52.52,0,0,0,.19.27.48.48,0,0,0,.3.08.47.47,0,0,0,.29-.08.42.42,0,0,0,.19-.24,1.36,1.36,0,0,0,.06-.45V8.24h1.68v.58a2.12,2.12,0,0,1-.58,1.61A2.27,2.27,0,0,1,45,11Zm-.54-4.36h1.09V5.94a1.68,1.68,0,0,0-.06-.49.44.44,0,0,0-.19-.26A.59.59,0,0,0,45,5.11a.49.49,0,0,0-.3.09.53.53,0,0,0-.17.29,2.27,2.27,0,0,0-.06.59Z" transform="translate(-0.73 -1.14)"/></g></g></svg>